<?xml version="1.0" standalone="no"?>
<!DOCTYPE svg PUBLIC "-//W3C//DTD SVG 20010904//EN"
 "http://www.w3.org/TR/2001/REC-SVG-20010904/DTD/svg10.dtd">
<svg version="1.0" xmlns="http://www.w3.org/2000/svg"
 width="25px" height="25px" viewBox="0 0 200.000000 200.000000"
 preserveAspectRatio="xMidYMid meet">

<g transform="translate(0.000000,200.000000) scale(0.100000,-0.100000)"
fill="#000000" stroke="none">
<path d="M789 1985 c-195 -37 -361 -126 -505 -269 -198 -198 -295 -446 -281
-721 7 -137 34 -243 93 -364 135 -282 375 -467 689 -532 33 -7 116 -12 185
-12 100 1 145 6 225 27 339 88 603 352 691 691 45 173 36 381 -24 555 l-19 55
-25 -50 -26 -50 19 -70 c10 -38 18 -91 18 -117 l1 -48 -89 0 -88 0 -27 -40
-26 -40 116 0 117 0 -7 -69 c-8 -86 -37 -184 -83 -278 l-35 -73 -134 0 c-78 0
-134 4 -134 10 0 5 7 34 14 65 8 30 20 90 26 134 l12 78 -39 54 -38 53 -7 -79
c-8 -87 -32 -214 -51 -273 l-12 -37 -173 -3 -172 -2 0 210 0 210 200 0 200 0
-26 40 -27 40 -173 0 -174 0 0 210 0 210 61 0 c54 0 60 2 54 18 -4 9 -10 27
-12 40 -5 19 -12 22 -54 22 l-49 0 0 166 0 166 28 -7 c15 -3 44 -17 64 -31
l38 -24 14 29 c9 16 27 42 40 58 l26 30 -58 13 c-90 19 -276 22 -363 5z m129
-237 l-3 -163 -152 -3 c-109 -2 -153 1 -153 9 0 27 79 158 128 210 48 53 136
109 169 109 11 0 13 -33 11 -162z m-266 87 c-37 -41 -105 -155 -127 -212 l-17
-43 -120 0 -119 0 20 29 c51 71 196 181 305 232 81 38 95 36 58 -6z m-176
-351 c-16 -41 -47 -225 -53 -310 l-6 -94 -169 0 -170 0 7 53 c15 118 59 256
107 335 l20 32 135 0 c119 0 134 -2 129 -16z m442 -191 l-3 -208 -209 -3 -208
-2 6 77 c8 95 31 221 51 291 l16 52 175 0 174 0 -2 -207z m-494 -390 c6 -88
36 -266 52 -307 5 -14 -10 -16 -130 -16 l-136 0 -35 70 c-40 80 -79 209 -89
293 l-6 57 168 0 169 0 7 -97z m494 -110 l-3 -208 -172 -3 -172 -2 -16 52
c-20 67 -41 190 -50 291 l-7 77 211 0 211 0 -2 -207z m-377 -365 c19 -40 57
-105 86 -145 29 -40 50 -73 47 -73 -3 0 -38 15 -79 34 -115 53 -218 130 -293
216 l-34 40 119 0 119 0 35 -72z m379 -94 l0 -165 -22 7 c-39 12 -94 42 -127
70 -39 32 -109 131 -145 202 l-26 52 160 0 160 0 0 -166z m390 160 c0 -3 -17
-38 -37 -77 -60 -113 -167 -217 -250 -242 l-23 -6 0 165 0 166 155 0 c85 0
155 -3 155 -6z m330 -3 c0 -15 -143 -144 -204 -185 -60 -40 -187 -98 -195 -90
-3 2 7 17 21 32 36 37 93 129 122 196 l25 56 115 0 c64 0 116 -4 116 -9z"/>
<path d="M1405 1987 c-22 -8 -51 -19 -64 -26 -45 -25 -113 -95 -139 -146 -24
-44 -27 -61 -27 -146 l0 -96 77 -154 c78 -155 232 -409 248 -409 17 0 171 255
248 410 l77 155 0 95 c0 80 -4 102 -23 138 -35 66 -98 129 -159 158 -65 32
-175 42 -238 21z m172 -174 c71 -33 107 -127 78 -201 -46 -113 -176 -146 -264
-67 -113 103 -45 284 107 285 24 0 60 -7 79 -17z"/>
</g>
</svg>
