<?xml version="1.0" standalone="no"?>
<!DOCTYPE svg PUBLIC "-//W3C//DTD SVG 20010904//EN"
 "http://www.w3.org/TR/2001/REC-SVG-20010904/DTD/svg10.dtd">
<svg version="1.0" xmlns="http://www.w3.org/2000/svg"
 width="800.000000pt" height="800.000000pt" viewBox="0 0 800.000000 800.000000"
 preserveAspectRatio="xMidYMid meet">

<g transform="translate(0.000000,800.000000) scale(0.100000,-0.100000)"
fill="#000000" stroke="none">
<path d="M761 7989 c-18 -6 -50 -21 -70 -34 -62 -40 -636 -625 -662 -675 -33
-63 -33 -176 -1 -240 17 -33 434 -455 1525 -1543 l1502 -1498 -1502 -1497
c-1093 -1089 -1508 -1509 -1525 -1542 -32 -65 -32 -177 1 -241 31 -61 628
-658 687 -687 62 -31 131 -37 200 -17 l59 16 1512 1512 1512 1511 1513 -1511
1513 -1511 59 -17 c69 -20 138 -14 200 17 59 29 646 616 683 682 23 42 28 63
28 121 -1 135 111 14 -1547 1667 l-1503 1497 1497 1493 c1068 1065 1505 1507
1525 1543 38 68 40 176 4 245 -34 66 -620 653 -685 687 -66 34 -139 40 -207
18 -52 -17 -120 -84 -1567 -1528 l-1514 -1510 -1506 1506 c-1378 1378 -1512
1509 -1560 1527 -56 21 -116 24 -171 9z"/>
</g>
</svg>
